<?xml version="1.0" encoding="utf-8"?>
<!-- Generator: Adobe Illustrator 26.0.1, SVG Export Plug-In . SVG Version: 6.00 Build 0)  -->
<svg version="1.1" id="Layer_1" xmlns="http://www.w3.org/2000/svg" xmlns:xlink="http://www.w3.org/1999/xlink" x="0px" y="0px"
	 viewBox="0 0 1400 1474.67" style="enable-background:new 0 0 1400 1474.67;" xml:space="preserve">
<style type="text/css">
	.st0{fill:#0086A5;}
	.st1{fill:#231F20;}
	.st2{fill:#FFFFFF;}
</style>
<g>
	<g>
		<g>
			<path d="M793.31,1175.03c36.1,0,70.87,0,106.47,0c-9.8,26.93-19.46,53.49-29.46,80.99
				C844.55,1228.92,819.31,1202.37,793.31,1175.03z"/>
		</g>
		<g>
			<path d="M907.08,1091.8c24.64,0.83,48.99,1.65,74.68,2.51c-25.32,24.07-49.64,47.18-74.68,70.97
				C907.08,1140.41,907.08,1116.44,907.08,1091.8z"/>
		</g>
		<g>
			<path class="st0" d="M901.01,1096.33c0,24.99,0,48.78,0,72.95c-22.86,0-45.56,0-69.12,0
				C854.97,1144.93,877.63,1121.02,901.01,1096.33z"/>
		</g>
		<g>
			<path class="st0" d="M900.78,1300.45c-11.49-6.19-22.66-12.2-34.18-18.41c11.25-30.61,22.38-60.88,33.51-91.16
				c0.22,0.03,0.45,0.06,0.67,0.1C900.78,1227.23,900.78,1263.48,900.78,1300.45z"/>
		</g>
		<g>
			<path class="st0" d="M783.65,1117.49c0,5.72,0,10.39,0,15.41c-5.34,0-10.47,0-16.84,0
				C772.75,1127.46,777.86,1122.79,783.65,1117.49z"/>
		</g>
		<g>
			<polygon class="st0" points="953.35,1127.57 979.17,1103.92 996.03,1104.7 			"/>
		</g>
		<g>
			<polygon points="789.52,1113.92 805.93,1113.92 840.02,1152.52 822.35,1170.19 789.52,1170.19 			"/>
		</g>
	</g>
	<g>
		<path class="st0" d="M1012.32,1172.66c0-6.72,0-13.52,0-20.4s0-13.68,0-20.4c4.04,0,8.12,0,12.24,0c4.12,0,8.2,0,12.24,0
			c0,1.52,0,3.08,0,4.68s0,3.16,0,4.68c-2.32,0-4.65,0-6.99,0s-4.67,0-6.99,0c0,1,0,1.99,0,2.97c0,0.98,0,1.97,0,2.97
			c2.12,0,4.26,0,6.42,0s4.28,0,6.36,0c0,1.48,0,2.98,0,4.5c0,1.52,0,3.04,0,4.56c-2.08,0-4.2,0-6.36,0s-4.3,0-6.42,0
			c0,1.16,0,2.34,0,3.54s0,2.38,0,3.54c2.32,0,4.65,0,6.99,0s4.67,0,6.99,0c0,1.52,0,3.08,0,4.68c0,1.6,0,3.16,0,4.68
			c-4.04,0-8.12,0-12.24,0C1020.44,1172.66,1016.36,1172.66,1012.32,1172.66z"/>
		<path class="st1" d="M1044,1172.66c0-6.72,0-13.52,0-20.4s0-13.68,0-20.4c1.76,0,3.52,0,5.28,0c1.76,0,3.5,0,5.22,0
			c0,5.16,0,10.37,0,15.63c0,5.26,0,10.47,0,15.63c2.12,0,4.26,0,6.42,0c2.16,0,4.28,0,6.36,0c0,1.56,0,3.15,0,4.77s0,3.21,0,4.77
			c-3.84,0-7.72,0-11.64,0C1051.72,1172.66,1047.84,1172.66,1044,1172.66z"/>
		<path class="st1" d="M1072.98,1172.66c0-6.72,0-13.52,0-20.4s0-13.68,0-20.4c1.76,0,3.52,0,5.28,0c1.76,0,3.5,0,5.22,0
			c0,5.16,0,10.37,0,15.63c0,5.26,0,10.47,0,15.63c2.12,0,4.26,0,6.42,0c2.16,0,4.28,0,6.36,0c0,1.56,0,3.15,0,4.77s0,3.21,0,4.77
			c-3.84,0-7.72,0-11.64,0S1076.82,1172.66,1072.98,1172.66z"/>
		<path class="st1" d="M1098.06,1172.66c2.08-6.72,4.17-13.52,6.27-20.4c2.1-6.88,4.19-13.68,6.27-20.4c2.36,0,4.75,0,7.17,0
			c2.42,0,4.81,0,7.17,0c2.08,6.72,4.17,13.52,6.27,20.4c2.1,6.88,4.19,13.68,6.27,20.4c-1.72,0-3.47,0-5.25,0
			c-1.78,0-3.55,0-5.31,0c-0.4-1.28-0.78-2.57-1.14-3.87c-0.36-1.3-0.74-2.59-1.14-3.87c-2.28,0-4.57,0-6.87,0c-2.3,0-4.59,0-6.87,0
			c-0.4,1.28-0.78,2.57-1.14,3.87s-0.74,2.59-1.14,3.87c-1.72,0-3.47,0-5.25,0C1101.59,1172.66,1099.82,1172.66,1098.06,1172.66z
			 M1113.54,1155.98c1.4,0,2.81,0,4.23,0c1.42,0,2.83,0,4.23,0c-0.68-2.36-1.38-4.74-2.1-7.14c-0.72-2.4-1.42-4.78-2.1-7.14
			c-0.68,2.36-1.39,4.74-2.13,7.14C1114.93,1151.24,1114.22,1153.63,1113.54,1155.98z"/>
		<path class="st1" d="M1141.38,1172.66c0-6.72,0-13.52,0-20.4s0-13.68,0-20.4c2.4,0,4.81,0,7.23,0c2.42,0,4.83,0,7.23,0
			c3.04,0,5.7,0.57,7.98,1.71c2.28,1.14,4.05,2.74,5.31,4.8s1.89,4.47,1.89,7.23c0,2.36-0.48,4.46-1.44,6.3
			c-0.96,1.84-2.26,3.34-3.9,4.5c1.6,2.68,3.21,5.39,4.83,8.13c1.62,2.74,3.23,5.45,4.83,8.13c-1.96,0-3.92,0-5.88,0
			c-1.96,0-3.92,0-5.88,0c-1.24-2.24-2.49-4.52-3.75-6.84c-1.26-2.32-2.53-4.6-3.81-6.84c-0.68,0-1.37,0-2.07,0
			c-0.7,0-1.39,0-2.07,0c0,2.24,0,4.52,0,6.84c0,2.32,0,4.6,0,6.84c-1.72,0-3.46,0-5.22,0S1143.14,1172.66,1141.38,1172.66z
			 M1155.84,1141.35c-0.64,0-1.29,0-1.95,0s-1.33,0-2.01,0c0,1.48,0,2.96,0,4.44c0,1.48,0,2.96,0,4.44c0.76,0,1.52,0,2.28,0
			s1.52,0,2.28,0c1.2,0,2.18-0.43,2.94-1.29c0.76-0.86,1.14-1.91,1.14-3.15c0-1.28-0.41-2.34-1.23-3.18
			C1158.47,1141.77,1157.32,1141.35,1155.84,1141.35z"/>
		<path class="st1" d="M1175.04,1172.66c2.08-6.72,4.17-13.52,6.27-20.4c2.1-6.88,4.19-13.68,6.27-20.4c2.36,0,4.75,0,7.17,0
			s4.81,0,7.17,0c2.08,6.72,4.17,13.52,6.27,20.4c2.1,6.88,4.19,13.68,6.27,20.4c-1.72,0-3.47,0-5.25,0c-1.78,0-3.55,0-5.31,0
			c-0.4-1.28-0.78-2.57-1.14-3.87c-0.36-1.3-0.74-2.59-1.14-3.87c-2.28,0-4.57,0-6.87,0c-2.3,0-4.59,0-6.87,0
			c-0.4,1.28-0.78,2.57-1.14,3.87c-0.36,1.3-0.74,2.59-1.14,3.87c-1.72,0-3.47,0-5.25,0S1176.8,1172.66,1175.04,1172.66z
			 M1190.52,1155.98c1.4,0,2.81,0,4.23,0s2.83,0,4.23,0c-0.68-2.36-1.38-4.74-2.1-7.14c-0.72-2.4-1.42-4.78-2.1-7.14
			c-0.68,2.36-1.39,4.74-2.13,7.14C1191.91,1151.24,1191.2,1153.63,1190.52,1155.98z"/>
		<path class="st1" d="M1008.42,1244.66c2.08-6.72,4.17-13.52,6.27-20.4s4.19-13.68,6.27-20.4c2.36,0,4.75,0,7.17,0
			c2.42,0,4.81,0,7.17,0c2.08,6.72,4.17,13.52,6.27,20.4s4.19,13.68,6.27,20.4c-1.72,0-3.47,0-5.25,0s-3.55,0-5.31,0
			c-0.4-1.28-0.78-2.57-1.14-3.87c-0.36-1.3-0.74-2.59-1.14-3.87c-2.28,0-4.57,0-6.87,0c-2.3,0-4.59,0-6.87,0
			c-0.4,1.28-0.78,2.57-1.14,3.87c-0.36,1.3-0.74,2.59-1.14,3.87c-1.72,0-3.47,0-5.25,0
			C1011.95,1244.66,1010.18,1244.66,1008.42,1244.66z M1023.9,1227.98c1.4,0,2.81,0,4.23,0c1.42,0,2.83,0,4.23,0
			c-0.68-2.36-1.38-4.74-2.1-7.14c-0.72-2.4-1.42-4.78-2.1-7.14c-0.68,2.36-1.39,4.74-2.13,7.14
			C1025.29,1223.24,1024.58,1225.63,1023.9,1227.98z"/>
		<path class="st1" d="M1048.5,1224.27c0-3.08,0.49-5.89,1.47-8.43c0.98-2.54,2.37-4.75,4.17-6.63c1.8-1.88,3.96-3.34,6.48-4.38
			c2.52-1.04,5.31-1.6,8.37-1.68s6.33,0.4,9.81,1.44c0,1.68,0,3.37,0,5.07c0,1.7,0,3.39,0,5.07c-2.36-1.12-4.7-1.76-7.02-1.92
			c-2.32-0.16-4.42,0.16-6.3,0.96c-1.88,0.8-3.38,2.07-4.5,3.81c-1.12,1.74-1.68,3.97-1.68,6.69c0,2.72,0.56,4.95,1.68,6.69
			c1.12,1.74,2.62,3.01,4.5,3.81c1.88,0.8,3.98,1.12,6.3,0.96c2.32-0.16,4.66-0.8,7.02-1.92c0,1.68,0,3.37,0,5.07s0,3.39,0,5.07
			c-3.48,1.04-6.75,1.52-9.81,1.44c-3.06-0.08-5.85-0.64-8.37-1.68c-2.52-1.04-4.68-2.5-6.48-4.38c-1.8-1.88-3.19-4.09-4.17-6.63
			C1048.99,1230.15,1048.5,1227.35,1048.5,1224.27z"/>
		<path class="st1" d="M1082.46,1224.27c0-3.08,0.49-5.89,1.47-8.43c0.98-2.54,2.37-4.75,4.17-6.63c1.8-1.88,3.96-3.34,6.48-4.38
			c2.52-1.04,5.31-1.6,8.37-1.68c3.06-0.08,6.33,0.4,9.81,1.44c0,1.68,0,3.37,0,5.07c0,1.7,0,3.39,0,5.07
			c-2.36-1.12-4.7-1.76-7.02-1.92c-2.32-0.16-4.42,0.16-6.3,0.96c-1.88,0.8-3.38,2.07-4.5,3.81c-1.12,1.74-1.68,3.97-1.68,6.69
			c0,2.72,0.56,4.95,1.68,6.69c1.12,1.74,2.62,3.01,4.5,3.81c1.88,0.8,3.98,1.12,6.3,0.96c2.32-0.16,4.66-0.8,7.02-1.92
			c0,1.68,0,3.37,0,5.07s0,3.39,0,5.07c-3.48,1.04-6.75,1.52-9.81,1.44c-3.06-0.08-5.85-0.64-8.37-1.68
			c-2.52-1.04-4.68-2.5-6.48-4.38c-1.8-1.88-3.19-4.09-4.17-6.63C1082.96,1230.15,1082.46,1227.35,1082.46,1224.27z"/>
		<path class="st1" d="M1136.65,1245.63c-2.92,0-5.62-0.53-8.1-1.59c-2.48-1.06-4.62-2.55-6.42-4.47s-3.2-4.19-4.2-6.81
			c-1-2.62-1.5-5.47-1.5-8.55s0.5-5.92,1.5-8.52c1-2.6,2.4-4.85,4.2-6.75c1.8-1.9,3.94-3.38,6.42-4.44c2.48-1.06,5.18-1.59,8.1-1.59
			c2.92,0,5.61,0.53,8.07,1.59c2.46,1.06,4.6,2.54,6.42,4.44c1.82,1.9,3.23,4.15,4.23,6.75c1,2.6,1.5,5.44,1.5,8.52
			s-0.5,5.93-1.5,8.55c-1,2.62-2.41,4.89-4.23,6.81c-1.82,1.92-3.96,3.41-6.42,4.47
			C1142.26,1245.09,1139.57,1245.63,1136.65,1245.63z M1136.65,1235.9c1.96,0,3.64-0.49,5.04-1.47c1.4-0.98,2.49-2.35,3.27-4.11
			c0.78-1.76,1.17-3.8,1.17-6.12s-0.39-4.34-1.17-6.06c-0.78-1.72-1.87-3.07-3.27-4.05c-1.4-0.98-3.08-1.47-5.04-1.47
			c-1.92,0-3.59,0.48-5.01,1.44c-1.42,0.96-2.52,2.31-3.3,4.05c-0.78,1.74-1.17,3.77-1.17,6.09s0.39,4.36,1.17,6.12
			c0.78,1.76,1.88,3.13,3.3,4.11C1133.05,1235.42,1134.73,1235.9,1136.65,1235.9z"/>
		<path class="st1" d="M1195.81,1229.18c0,2.52-0.43,4.79-1.29,6.81c-0.86,2.02-2.06,3.75-3.6,5.19c-1.54,1.44-3.34,2.54-5.4,3.3
			c-2.06,0.76-4.29,1.14-6.69,1.14c-2.44,0-4.68-0.38-6.72-1.14s-3.81-1.85-5.31-3.27s-2.67-3.13-3.51-5.13
			c-0.84-2-1.26-4.26-1.26-6.78c0-4.2,0-8.44,0-12.72c0-4.28,0-8.52,0-12.72c1.76,0,3.52,0,5.28,0c1.76,0,3.5,0,5.22,0
			c0,4.12,0,8.26,0,12.42s0,8.3,0,12.42c0,2.16,0.6,3.9,1.8,5.22c1.2,1.32,2.74,1.98,4.62,1.98c1.88,0,3.41-0.66,4.59-1.98
			c1.18-1.32,1.77-3.06,1.77-5.22c0-4.12,0-8.26,0-12.42s0-8.3,0-12.42c1.76,0,3.52,0,5.28,0c1.76,0,3.5,0,5.22,0
			c0,4.16,0,8.38,0,12.66S1195.81,1225.03,1195.81,1229.18z"/>
		<path class="st1" d="M1203,1244.66c0-6.72,0-13.52,0-20.4s0-13.68,0-20.4c1.76,0,3.53,0,5.31,0s3.53,0,5.25,0
			c2.12,3.8,4.27,7.64,6.45,11.52c2.18,3.88,4.33,7.72,6.45,11.52c0-3.8,0-7.64,0-11.52c0-3.88,0-7.72,0-11.52c1.72,0,3.44,0,5.16,0
			c1.72,0,3.44,0,5.16,0c0,6.72,0,13.52,0,20.4s0,13.68,0,20.4c-1.72,0-3.47,0-5.25,0c-1.78,0-3.55,0-5.31,0
			c-2.12-3.8-4.27-7.64-6.45-11.52c-2.18-3.88-4.33-7.72-6.45-11.52c0,3.8,0,7.64,0,11.52c0,3.88,0,7.72,0,11.52
			c-1.72,0-3.44,0-5.16,0S1204.72,1244.66,1203,1244.66z"/>
		<path class="st1" d="M1251.72,1244.66c0-5.16,0-10.37,0-15.63s0-10.47,0-15.63c-1.52,0-3.06,0-4.62,0s-3.1,0-4.62,0
			c0-1.56,0-3.15,0-4.77c0-1.62,0-3.21,0-4.77c4.76,0,9.58,0,14.46,0s9.7,0,14.46,0c0,1.56,0,3.15,0,4.77c0,1.62,0,3.21,0,4.77
			c-1.48,0-3,0-4.56,0s-3.1,0-4.62,0c0,5.16,0,10.37,0,15.63s0,10.47,0,15.63c-1.72,0-3.46,0-5.22,0
			S1253.48,1244.66,1251.72,1244.66z"/>
		<path class="st1" d="M1277.4,1244.66c0-6.72,0-13.52,0-20.4s0-13.68,0-20.4c1.76,0,3.52,0,5.28,0s3.5,0,5.22,0
			c0,6.72,0,13.52,0,20.4s0,13.68,0,20.4c-1.72,0-3.46,0-5.22,0S1279.16,1244.66,1277.4,1244.66z"/>
		<path class="st1" d="M1296,1244.66c0-6.72,0-13.52,0-20.4s0-13.68,0-20.4c1.76,0,3.53,0,5.31,0s3.53,0,5.25,0
			c2.12,3.8,4.27,7.64,6.45,11.52c2.18,3.88,4.33,7.72,6.45,11.52c0-3.8,0-7.64,0-11.52c0-3.88,0-7.72,0-11.52c1.72,0,3.44,0,5.16,0
			c1.72,0,3.44,0,5.16,0c0,6.72,0,13.52,0,20.4s0,13.68,0,20.4c-1.72,0-3.47,0-5.25,0c-1.78,0-3.55,0-5.31,0
			c-2.12-3.8-4.27-7.64-6.45-11.52c-2.18-3.88-4.33-7.72-6.45-11.52c0,3.8,0,7.64,0,11.52c0,3.88,0,7.72,0,11.52
			c-1.72,0-3.44,0-5.16,0S1297.72,1244.66,1296,1244.66z"/>
		<path class="st1" d="M1370.52,1242.5c-4.16,1.68-8.03,2.65-11.61,2.91s-6.81-0.08-9.69-1.02s-5.34-2.37-7.38-4.29
			s-3.6-4.2-4.68-6.84s-1.62-5.52-1.62-8.64c0-3.08,0.5-5.93,1.5-8.55c1-2.62,2.47-4.89,4.41-6.81c1.94-1.92,4.29-3.42,7.05-4.5
			c2.76-1.08,5.9-1.61,9.42-1.59c3.52,0.02,7.38,0.67,11.58,1.95c0,1.68,0,3.37,0,5.07s0,3.39,0,5.07
			c-3.32-1.32-6.39-2.08-9.21-2.28c-2.82-0.2-5.28,0.1-7.38,0.9c-2.1,0.8-3.74,2.07-4.92,3.81c-1.18,1.74-1.77,3.91-1.77,6.51
			c0,2.28,0.43,4.3,1.29,6.06c0.86,1.76,2.07,3.14,3.63,4.14c1.56,1,3.34,1.5,5.34,1.5c0.68,0,1.36-0.03,2.04-0.09
			c0.68-0.06,1.34-0.17,1.98-0.33c0-1.04,0-2.1,0-3.18s0-2.14,0-3.18c-1.12,0-2.24,0-3.36,0c-1.12,0-2.24,0-3.36,0
			c0-1.48,0-2.97,0-4.47s0-2.99,0-4.47c2.76,0,5.55,0,8.37,0s5.61,0,8.37,0c0,3.68,0,7.4,0,11.16
			C1370.52,1235.11,1370.52,1238.82,1370.52,1242.5z"/>
	</g>
</g>
<g>
	<rect x="-236.63" y="37.02" width="935.76" height="878.33"/>
</g>
<g>
	<g>
		<g>
			<path class="st0" d="M237.99,339.72c47.09,0,92.44,0,138.87,0c-12.78,35.13-25.38,69.77-38.43,105.63
				C304.83,410.01,271.91,375.38,237.99,339.72z"/>
		</g>
		<g>
			<path class="st2" d="M386.39,231.16c32.14,1.08,63.9,2.15,97.4,3.27c-33.03,31.39-64.75,61.54-97.4,92.57
				C386.39,294.57,386.39,263.3,386.39,231.16z"/>
		</g>
		<g>
			<path class="st2" d="M378.48,237.07c0,32.59,0,63.63,0,95.15c-29.81,0-59.42,0-90.15,0
				C318.42,300.46,347.97,269.27,378.48,237.07z"/>
		</g>
		<g>
			<path class="st2" d="M378.17,503.3c-14.98-8.07-29.55-15.92-44.59-24.01c14.68-39.93,29.2-79.41,43.71-118.9
				c0.29,0.04,0.58,0.08,0.87,0.13C378.17,407.8,378.17,455.08,378.17,503.3z"/>
		</g>
		<g>
			<path class="st2" d="M225.4,264.67c0,7.46,0,13.55,0,20.1c-6.96,0-13.65,0-21.97,0C211.19,277.68,217.85,271.58,225.4,264.67z"/>
		</g>
		<g>
			<polygon class="st2" points="446.74,277.82 480.42,246.98 502.41,247.99 			"/>
		</g>
		<g>
			<polygon class="st2" points="233.05,260.01 254.46,260.01 298.93,310.36 275.88,333.41 233.05,333.41 			"/>
		</g>
	</g>
	<g>
		<path class="st0" d="M215.42,594.27c0-8.76,0-17.63,0-26.61c0-8.97,0-17.84,0-26.61c5.27,0,10.59,0,15.96,0
			c5.37,0,10.69,0,15.96,0c0,1.98,0,4.02,0,6.1c0,2.09,0,4.12,0,6.1c-3.03,0-6.07,0-9.12,0s-6.09,0-9.12,0c0,1.3,0,2.6,0,3.87
			c0,1.28,0,2.57,0,3.87c2.76,0,5.56,0,8.37,0s5.58,0,8.29,0c0,1.93,0,3.89,0,5.87c0,1.98,0,3.97,0,5.95c-2.71,0-5.48,0-8.29,0
			s-5.61,0-8.37,0c0,1.51,0,3.05,0,4.62c0,1.56,0,3.1,0,4.62c3.03,0,6.07,0,9.12,0s6.09,0,9.12,0c0,1.98,0,4.02,0,6.1
			c0,2.09,0,4.12,0,6.1c-5.27,0-10.59,0-15.96,0C226.01,594.27,220.68,594.27,215.42,594.27z"/>
		<path class="st2" d="M256.74,594.27c0-8.76,0-17.63,0-26.61c0-8.97,0-17.84,0-26.61c2.29,0,4.59,0,6.89,0c2.29,0,4.56,0,6.81,0
			c0,6.73,0,13.53,0,20.39c0,6.86,0,13.66,0,20.39c2.76,0,5.56,0,8.37,0s5.58,0,8.29,0c0,2.04,0,4.11,0,6.22s0,4.19,0,6.22
			c-5.01,0-10.07,0-15.18,0C266.8,594.27,261.75,594.27,256.74,594.27z"/>
		<path class="st2" d="M294.54,594.27c0-8.76,0-17.63,0-26.61c0-8.97,0-17.84,0-26.61c2.29,0,4.59,0,6.89,0c2.29,0,4.56,0,6.81,0
			c0,6.73,0,13.53,0,20.39c0,6.86,0,13.66,0,20.39c2.76,0,5.56,0,8.37,0s5.58,0,8.29,0c0,2.04,0,4.11,0,6.22s0,4.19,0,6.22
			c-5.01,0-10.07,0-15.18,0C304.6,594.27,299.54,594.27,294.54,594.27z"/>
		<path class="st2" d="M327.25,594.27c2.71-8.76,5.44-17.63,8.18-26.61c2.74-8.97,5.46-17.84,8.18-26.61c3.08,0,6.19,0,9.35,0
			c3.16,0,6.27,0,9.35,0c2.71,8.76,5.44,17.63,8.18,26.61c2.74,8.97,5.46,17.84,8.18,26.61c-2.24,0-4.53,0-6.85,0
			c-2.32,0-4.63,0-6.93,0c-0.52-1.67-1.02-3.35-1.49-5.05c-0.47-1.69-0.97-3.38-1.49-5.05c-2.97,0-5.96,0-8.96,0c-3,0-5.99,0-8.96,0
			c-0.52,1.67-1.02,3.35-1.49,5.05c-0.47,1.7-0.97,3.38-1.49,5.05c-2.24,0-4.53,0-6.85,0C331.85,594.27,329.54,594.27,327.25,594.27
			z M347.44,572.51c1.83,0,3.67,0,5.52,0c1.85,0,3.69,0,5.52,0c-0.89-3.08-1.8-6.18-2.74-9.31c-0.94-3.13-1.85-6.23-2.74-9.31
			c-0.89,3.08-1.81,6.18-2.78,9.31C349.25,566.33,348.32,569.43,347.44,572.51z"/>
		<path class="st2" d="M383.75,594.27c0-8.76,0-17.63,0-26.61c0-8.97,0-17.84,0-26.61c3.13,0,6.27,0,9.43,0c3.16,0,6.3,0,9.43,0
			c3.96,0,7.43,0.74,10.41,2.23c2.97,1.49,5.28,3.57,6.93,6.26c1.64,2.69,2.47,5.83,2.47,9.43c0,3.08-0.63,5.82-1.88,8.22
			c-1.25,2.4-2.95,4.36-5.09,5.87c2.09,3.5,4.19,7.03,6.3,10.6c2.11,3.57,4.21,7.11,6.3,10.6c-2.56,0-5.11,0-7.67,0
			c-2.56,0-5.11,0-7.67,0c-1.62-2.92-3.25-5.9-4.89-8.92c-1.64-3.02-3.3-6-4.97-8.92c-0.89,0-1.79,0-2.7,0c-0.91,0-1.81,0-2.7,0
			c0,2.92,0,5.9,0,8.92c0,3.03,0,6,0,8.92c-2.24,0-4.51,0-6.81,0C388.34,594.27,386.04,594.27,383.75,594.27z M402.61,553.41
			c-0.83,0-1.68,0-2.54,0c-0.86,0-1.74,0-2.62,0c0,1.93,0,3.86,0,5.79c0,1.93,0,3.86,0,5.79c0.99,0,1.98,0,2.97,0
			c0.99,0,1.98,0,2.97,0c1.57,0,2.84-0.56,3.83-1.68c0.99-1.12,1.49-2.49,1.49-4.11c0-1.67-0.54-3.05-1.6-4.15
			C406.04,553.96,404.54,553.41,402.61,553.41z"/>
		<path class="st2" d="M427.65,594.27c2.71-8.76,5.44-17.63,8.18-26.61c2.74-8.97,5.46-17.84,8.18-26.61c3.08,0,6.19,0,9.35,0
			c3.16,0,6.27,0,9.35,0c2.71,8.76,5.44,17.63,8.18,26.61c2.74,8.97,5.46,17.84,8.18,26.61c-2.24,0-4.53,0-6.85,0
			c-2.32,0-4.63,0-6.93,0c-0.52-1.67-1.02-3.35-1.49-5.05c-0.47-1.69-0.97-3.38-1.49-5.05c-2.97,0-5.96,0-8.96,0c-3,0-5.99,0-8.96,0
			c-0.52,1.67-1.02,3.35-1.49,5.05c-0.47,1.7-0.97,3.38-1.49,5.05c-2.24,0-4.53,0-6.85,0C432.25,594.27,429.95,594.27,427.65,594.27
			z M447.84,572.51c1.83,0,3.67,0,5.52,0c1.85,0,3.69,0,5.52,0c-0.89-3.08-1.8-6.18-2.74-9.31c-0.94-3.13-1.85-6.23-2.74-9.31
			c-0.89,3.08-1.81,6.18-2.78,9.31C449.65,566.33,448.73,569.43,447.84,572.51z"/>
		<path class="st2" d="M114.34,688.18c2.71-8.76,5.44-17.63,8.18-26.61c2.74-8.97,5.46-17.84,8.18-26.61c3.08,0,6.19,0,9.35,0
			c3.16,0,6.27,0,9.35,0c2.71,8.76,5.44,17.63,8.18,26.61c2.74,8.97,5.46,17.84,8.18,26.61c-2.24,0-4.53,0-6.85,0
			c-2.32,0-4.63,0-6.93,0c-0.52-1.67-1.02-3.35-1.49-5.05c-0.47-1.69-0.97-3.38-1.49-5.05c-2.97,0-5.96,0-8.96,0c-3,0-5.99,0-8.96,0
			c-0.52,1.67-1.02,3.35-1.49,5.05c-0.47,1.7-0.97,3.38-1.49,5.05c-2.24,0-4.53,0-6.85,0C118.95,688.18,116.64,688.18,114.34,688.18
			z M134.53,666.42c1.83,0,3.67,0,5.52,0c1.85,0,3.69,0,5.52,0c-0.89-3.08-1.8-6.18-2.74-9.31c-0.94-3.13-1.85-6.23-2.74-9.31
			c-0.89,3.08-1.81,6.18-2.78,9.31C136.35,660.24,135.42,663.34,134.53,666.42z"/>
		<path class="st2" d="M166.62,661.57c0-4.02,0.64-7.68,1.92-11c1.28-3.31,3.09-6.19,5.44-8.65c2.35-2.45,5.17-4.36,8.45-5.71
			c3.29-1.36,6.93-2.09,10.92-2.19c3.99-0.1,8.26,0.52,12.8,1.88c0,2.19,0,4.4,0,6.61c0,2.22,0,4.42,0,6.61
			c-3.08-1.46-6.13-2.3-9.16-2.5c-3.03-0.21-5.76,0.21-8.22,1.25c-2.45,1.04-4.41,2.7-5.87,4.97c-1.46,2.27-2.19,5.18-2.19,8.73
			c0,3.55,0.73,6.46,2.19,8.73c1.46,2.27,3.42,3.93,5.87,4.97c2.45,1.04,5.19,1.46,8.22,1.25c3.03-0.21,6.08-1.04,9.16-2.5
			c0,2.19,0,4.4,0,6.61c0,2.22,0,4.42,0,6.61c-4.54,1.36-8.8,1.98-12.8,1.88c-3.99-0.11-7.63-0.84-10.92-2.19
			c-3.29-1.36-6.1-3.26-8.45-5.71c-2.35-2.45-4.16-5.33-5.44-8.65C167.26,669.25,166.62,665.59,166.62,661.57z"/>
		<path class="st2" d="M210.92,661.57c0-4.02,0.64-7.68,1.92-11c1.28-3.31,3.09-6.19,5.44-8.65c2.35-2.45,5.17-4.36,8.45-5.71
			c3.29-1.36,6.93-2.09,10.92-2.19c3.99-0.1,8.26,0.52,12.8,1.88c0,2.19,0,4.4,0,6.61c0,2.22,0,4.42,0,6.61
			c-3.08-1.46-6.13-2.3-9.16-2.5c-3.03-0.21-5.76,0.21-8.22,1.25c-2.45,1.04-4.41,2.7-5.87,4.97c-1.46,2.27-2.19,5.18-2.19,8.73
			c0,3.55,0.73,6.46,2.19,8.73c1.46,2.27,3.42,3.93,5.87,4.97c2.45,1.04,5.19,1.46,8.22,1.25c3.03-0.21,6.08-1.04,9.16-2.5
			c0,2.19,0,4.4,0,6.61c0,2.22,0,4.42,0,6.61c-4.54,1.36-8.8,1.98-12.8,1.88c-3.99-0.11-7.63-0.84-10.92-2.19
			c-3.29-1.36-6.1-3.26-8.45-5.71c-2.35-2.45-4.16-5.33-5.44-8.65C211.55,669.25,210.92,665.59,210.92,661.57z"/>
		<path class="st2" d="M281.58,689.43c-3.81,0-7.33-0.69-10.56-2.07c-3.24-1.38-6.03-3.33-8.37-5.83c-2.35-2.5-4.17-5.46-5.48-8.88
			c-1.3-3.42-1.96-7.13-1.96-11.15c0-4.02,0.65-7.72,1.96-11.11c1.3-3.39,3.13-6.33,5.48-8.8c2.35-2.48,5.14-4.41,8.37-5.79
			c3.23-1.38,6.76-2.07,10.56-2.07s7.32,0.69,10.53,2.07c3.21,1.38,6,3.31,8.37,5.79c2.37,2.48,4.21,5.41,5.52,8.8
			c1.3,3.39,1.96,7.1,1.96,11.11c0,4.02-0.65,7.74-1.96,11.15c-1.3,3.42-3.14,6.38-5.52,8.88c-2.38,2.5-5.17,4.45-8.37,5.83
			C288.9,688.74,285.39,689.43,281.58,689.43z M281.58,676.75c2.56,0,4.75-0.64,6.57-1.92c1.83-1.28,3.25-3.06,4.26-5.36
			c1.02-2.29,1.53-4.96,1.53-7.98c0-3.03-0.51-5.66-1.53-7.9c-1.02-2.24-2.44-4-4.26-5.28c-1.83-1.28-4.02-1.92-6.57-1.92
			c-2.5,0-4.68,0.63-6.53,1.88c-1.85,1.25-3.29,3.01-4.3,5.28c-1.02,2.27-1.53,4.92-1.53,7.94c0,3.03,0.51,5.69,1.53,7.98
			c1.02,2.3,2.45,4.08,4.3,5.36C276.9,676.11,279.08,676.75,281.58,676.75z"/>
		<path class="st2" d="M358.75,667.99c0,3.29-0.56,6.25-1.68,8.88c-1.12,2.64-2.69,4.89-4.7,6.77c-2.01,1.88-4.36,3.31-7.04,4.3
			c-2.69,0.99-5.6,1.49-8.73,1.49c-3.18,0-6.1-0.5-8.76-1.49c-2.66-0.99-4.97-2.41-6.93-4.27c-1.96-1.85-3.48-4.08-4.58-6.69
			c-1.09-2.61-1.64-5.56-1.64-8.84c0-5.48,0-11.01,0-16.59c0-5.58,0-11.11,0-16.59c2.29,0,4.59,0,6.89,0c2.29,0,4.56,0,6.81,0
			c0,5.37,0,10.77,0,16.2c0,5.43,0,10.83,0,16.2c0,2.82,0.78,5.09,2.35,6.81c1.56,1.72,3.57,2.58,6.03,2.58
			c2.45,0,4.45-0.86,5.99-2.58c1.54-1.72,2.31-3.99,2.31-6.81c0-5.37,0-10.77,0-16.2c0-5.43,0-10.83,0-16.2c2.29,0,4.59,0,6.89,0
			c2.29,0,4.56,0,6.81,0c0,5.43,0,10.93,0,16.51C358.75,657.06,358.75,662.56,358.75,667.99z"/>
		<path class="st2" d="M368.14,688.18c0-8.76,0-17.63,0-26.61c0-8.97,0-17.84,0-26.61c2.29,0,4.6,0,6.93,0c2.32,0,4.6,0,6.85,0
			c2.76,4.96,5.57,9.97,8.41,15.03c2.84,5.06,5.65,10.07,8.41,15.03c0-4.96,0-9.96,0-15.03c0-5.06,0-10.07,0-15.03
			c2.24,0,4.49,0,6.73,0s4.49,0,6.73,0c0,8.76,0,17.63,0,26.61c0,8.97,0,17.84,0,26.61c-2.24,0-4.53,0-6.85,0c-2.32,0-4.63,0-6.93,0
			c-2.77-4.96-5.57-9.96-8.41-15.03c-2.84-5.06-5.65-10.07-8.41-15.03c0,4.96,0,9.97,0,15.03s0,10.07,0,15.03c-2.24,0-4.49,0-6.73,0
			C372.62,688.18,370.38,688.18,368.14,688.18z"/>
		<path class="st2" d="M431.68,688.18c0-6.73,0-13.53,0-20.39c0-6.86,0-13.66,0-20.39c-1.98,0-3.99,0-6.03,0c-2.04,0-4.04,0-6.03,0
			c0-2.04,0-4.11,0-6.22c0-2.11,0-4.19,0-6.22c6.21,0,12.5,0,18.86,0s12.65,0,18.86,0c0,2.03,0,4.11,0,6.22c0,2.11,0,4.19,0,6.22
			c-1.93,0-3.91,0-5.95,0c-2.04,0-4.04,0-6.03,0c0,6.73,0,13.53,0,20.39c0,6.86,0,13.66,0,20.39c-2.24,0-4.51,0-6.81,0
			S433.98,688.18,431.68,688.18z"/>
		<path class="st2" d="M465.18,688.18c0-8.76,0-17.63,0-26.61c0-8.97,0-17.84,0-26.61c2.29,0,4.59,0,6.89,0c2.29,0,4.56,0,6.81,0
			c0,8.76,0,17.63,0,26.61c0,8.97,0,17.84,0,26.61c-2.24,0-4.51,0-6.81,0C469.77,688.18,467.47,688.18,465.18,688.18z"/>
		<path class="st2" d="M489.44,688.18c0-8.76,0-17.63,0-26.61c0-8.97,0-17.84,0-26.61c2.29,0,4.6,0,6.93,0c2.32,0,4.6,0,6.85,0
			c2.76,4.96,5.57,9.97,8.41,15.03c2.84,5.06,5.65,10.07,8.41,15.03c0-4.96,0-9.96,0-15.03c0-5.06,0-10.07,0-15.03
			c2.24,0,4.49,0,6.73,0s4.49,0,6.73,0c0,8.76,0,17.63,0,26.61c0,8.97,0,17.84,0,26.61c-2.24,0-4.53,0-6.85,0c-2.32,0-4.63,0-6.93,0
			c-2.77-4.96-5.57-9.96-8.41-15.03c-2.84-5.06-5.65-10.07-8.41-15.03c0,4.96,0,9.97,0,15.03s0,10.07,0,15.03c-2.24,0-4.49,0-6.73,0
			C493.92,688.18,491.68,688.18,489.44,688.18z"/>
		<path class="st2" d="M586.63,685.36c-5.43,2.19-10.47,3.46-15.14,3.8c-4.67,0.34-8.88-0.11-12.64-1.33
			c-3.76-1.22-6.97-3.09-9.63-5.59c-2.66-2.5-4.7-5.48-6.1-8.92c-1.41-3.44-2.11-7.2-2.11-11.27c0-4.02,0.65-7.73,1.96-11.15
			c1.3-3.42,3.22-6.38,5.75-8.88c2.53-2.5,5.6-4.46,9.2-5.87c3.6-1.41,7.7-2.1,12.29-2.07c4.59,0.03,9.63,0.87,15.1,2.54
			c0,2.19,0,4.4,0,6.61c0,2.22,0,4.42,0,6.61c-4.33-1.72-8.33-2.71-12.01-2.97c-3.68-0.26-6.89,0.13-9.63,1.17
			c-2.74,1.04-4.88,2.7-6.42,4.97c-1.54,2.27-2.31,5.1-2.31,8.49c0,2.97,0.56,5.61,1.68,7.9c1.12,2.3,2.7,4.1,4.73,5.4
			c2.03,1.3,4.36,1.96,6.96,1.96c0.89,0,1.77-0.04,2.66-0.12c0.89-0.08,1.75-0.22,2.58-0.43c0-1.36,0-2.74,0-4.15
			c0-1.41,0-2.79,0-4.15c-1.46,0-2.92,0-4.38,0c-1.46,0-2.92,0-4.38,0c0-1.93,0-3.87,0-5.83c0-1.96,0-3.9,0-5.83
			c3.6,0,7.24,0,10.92,0c3.68,0,7.32,0,10.92,0c0,4.8,0,9.65,0,14.56S586.63,680.56,586.63,685.36z"/>
	</g>
</g>
<g>
	<g>
		<g>
			<path d="M943.85,339.72c47.09,0,92.44,0,138.87,0c-12.78,35.13-25.38,69.77-38.43,105.63
				C1010.69,410.01,977.76,375.38,943.85,339.72z"/>
		</g>
		<g>
			<path d="M1092.25,231.16c32.14,1.08,63.9,2.15,97.4,3.27c-33.03,31.39-64.75,61.54-97.4,92.57
				C1092.25,294.57,1092.25,263.3,1092.25,231.16z"/>
		</g>
		<g>
			<path class="st0" d="M1084.33,237.07c0,32.59,0,63.63,0,95.15c-29.81,0-59.42,0-90.15,0
				C1024.28,300.46,1053.83,269.27,1084.33,237.07z"/>
		</g>
		<g>
			<path class="st0" d="M1084.03,503.3c-14.98-8.07-29.55-15.92-44.59-24.01c14.68-39.93,29.2-79.41,43.71-118.9
				c0.29,0.04,0.58,0.08,0.87,0.13C1084.03,407.8,1084.03,455.08,1084.03,503.3z"/>
		</g>
		<g>
			<path class="st0" d="M931.25,264.67c0,7.46,0,13.55,0,20.1c-6.96,0-13.65,0-21.97,0C917.04,277.68,923.7,271.58,931.25,264.67z"
				/>
		</g>
		<g>
			<polygon class="st0" points="1152.6,277.82 1186.27,246.98 1208.26,247.99 			"/>
		</g>
		<g>
			<polygon points="938.91,260.01 960.32,260.01 1004.78,310.36 981.73,333.41 938.91,333.41 			"/>
		</g>
	</g>
	<g>
		<path class="st0" d="M921.27,594.27c0-8.76,0-17.63,0-26.61c0-8.97,0-17.84,0-26.61c5.27,0,10.59,0,15.96,0
			c5.37,0,10.69,0,15.96,0c0,1.98,0,4.02,0,6.1c0,2.09,0,4.12,0,6.1c-3.03,0-6.07,0-9.12,0s-6.09,0-9.12,0c0,1.3,0,2.6,0,3.87
			c0,1.28,0,2.57,0,3.87c2.76,0,5.56,0,8.37,0s5.58,0,8.29,0c0,1.93,0,3.89,0,5.87c0,1.98,0,3.97,0,5.95c-2.71,0-5.48,0-8.29,0
			s-5.61,0-8.37,0c0,1.51,0,3.05,0,4.62c0,1.56,0,3.1,0,4.62c3.03,0,6.07,0,9.12,0s6.09,0,9.12,0c0,1.98,0,4.02,0,6.1
			c0,2.09,0,4.12,0,6.1c-5.27,0-10.59,0-15.96,0C931.86,594.27,926.54,594.27,921.27,594.27z"/>
		<path class="st1" d="M962.59,594.27c0-8.76,0-17.63,0-26.61c0-8.97,0-17.84,0-26.61c2.29,0,4.59,0,6.89,0c2.29,0,4.56,0,6.81,0
			c0,6.73,0,13.53,0,20.39c0,6.86,0,13.66,0,20.39c2.76,0,5.56,0,8.37,0s5.58,0,8.29,0c0,2.04,0,4.11,0,6.22s0,4.19,0,6.22
			c-5.01,0-10.07,0-15.18,0C972.66,594.27,967.6,594.27,962.59,594.27z"/>
		<path class="st1" d="M1000.39,594.27c0-8.76,0-17.63,0-26.61c0-8.97,0-17.84,0-26.61c2.29,0,4.59,0,6.89,0c2.29,0,4.56,0,6.81,0
			c0,6.73,0,13.53,0,20.39c0,6.86,0,13.66,0,20.39c2.76,0,5.56,0,8.37,0s5.58,0,8.29,0c0,2.04,0,4.11,0,6.22s0,4.19,0,6.22
			c-5.01,0-10.07,0-15.18,0C1010.46,594.27,1005.4,594.27,1000.39,594.27z"/>
		<path class="st1" d="M1033.1,594.27c2.71-8.76,5.44-17.63,8.18-26.61c2.74-8.97,5.46-17.84,8.18-26.61c3.08,0,6.19,0,9.35,0
			c3.16,0,6.27,0,9.35,0c2.71,8.76,5.44,17.63,8.18,26.61c2.74,8.97,5.46,17.84,8.18,26.61c-2.24,0-4.53,0-6.85,0
			c-2.32,0-4.63,0-6.93,0c-0.52-1.67-1.02-3.35-1.49-5.05c-0.47-1.69-0.97-3.38-1.49-5.05c-2.97,0-5.96,0-8.96,0c-3,0-5.99,0-8.96,0
			c-0.52,1.67-1.02,3.35-1.49,5.05c-0.47,1.7-0.97,3.38-1.49,5.05c-2.24,0-4.53,0-6.85,0
			C1037.7,594.27,1035.39,594.27,1033.1,594.27z M1053.29,572.51c1.83,0,3.67,0,5.52,0c1.85,0,3.69,0,5.52,0
			c-0.89-3.08-1.8-6.18-2.74-9.31c-0.94-3.13-1.85-6.23-2.74-9.31c-0.89,3.08-1.81,6.18-2.78,9.31
			C1055.1,566.33,1054.18,569.43,1053.29,572.51z"/>
		<path class="st1" d="M1089.6,594.27c0-8.76,0-17.63,0-26.61c0-8.97,0-17.84,0-26.61c3.13,0,6.27,0,9.43,0c3.16,0,6.3,0,9.43,0
			c3.96,0,7.43,0.74,10.41,2.23c2.97,1.49,5.28,3.57,6.93,6.26c1.64,2.69,2.47,5.83,2.47,9.43c0,3.08-0.63,5.82-1.88,8.22
			c-1.25,2.4-2.95,4.36-5.09,5.87c2.09,3.5,4.19,7.03,6.3,10.6c2.11,3.57,4.21,7.11,6.3,10.6c-2.56,0-5.11,0-7.67,0
			c-2.56,0-5.11,0-7.67,0c-1.62-2.92-3.25-5.9-4.89-8.92c-1.64-3.02-3.3-6-4.97-8.92c-0.89,0-1.79,0-2.7,0c-0.91,0-1.81,0-2.7,0
			c0,2.92,0,5.9,0,8.92c0,3.03,0,6,0,8.92c-2.24,0-4.51,0-6.81,0C1094.19,594.27,1091.9,594.27,1089.6,594.27z M1108.46,553.41
			c-0.83,0-1.68,0-2.54,0c-0.86,0-1.74,0-2.62,0c0,1.93,0,3.86,0,5.79c0,1.93,0,3.86,0,5.79c0.99,0,1.98,0,2.97,0
			c0.99,0,1.98,0,2.97,0c1.57,0,2.84-0.56,3.83-1.68c0.99-1.12,1.49-2.49,1.49-4.11c0-1.67-0.54-3.05-1.6-4.15
			C1111.89,553.96,1110.39,553.41,1108.46,553.41z"/>
		<path class="st1" d="M1133.5,594.27c2.71-8.76,5.44-17.63,8.18-26.61c2.74-8.97,5.46-17.84,8.18-26.61c3.08,0,6.19,0,9.35,0
			c3.16,0,6.27,0,9.35,0c2.71,8.76,5.44,17.63,8.18,26.61c2.74,8.97,5.46,17.84,8.18,26.61c-2.24,0-4.53,0-6.85,0
			c-2.32,0-4.63,0-6.93,0c-0.52-1.67-1.02-3.35-1.49-5.05c-0.47-1.69-0.97-3.38-1.49-5.05c-2.97,0-5.96,0-8.96,0c-3,0-5.99,0-8.96,0
			c-0.52,1.67-1.02,3.35-1.49,5.05c-0.47,1.7-0.97,3.38-1.49,5.05c-2.24,0-4.53,0-6.85,0
			C1138.11,594.27,1135.8,594.27,1133.5,594.27z M1153.7,572.51c1.83,0,3.67,0,5.52,0c1.85,0,3.69,0,5.52,0
			c-0.89-3.08-1.8-6.18-2.74-9.31c-0.94-3.13-1.85-6.23-2.74-9.31c-0.89,3.08-1.81,6.18-2.78,9.31
			C1155.51,566.33,1154.58,569.43,1153.7,572.51z"/>
		<path class="st1" d="M820.2,688.18c2.71-8.76,5.44-17.63,8.18-26.61c2.74-8.97,5.46-17.84,8.18-26.61c3.08,0,6.19,0,9.35,0
			c3.16,0,6.27,0,9.35,0c2.71,8.76,5.44,17.63,8.18,26.61c2.74,8.97,5.46,17.84,8.18,26.61c-2.24,0-4.53,0-6.85,0
			c-2.32,0-4.63,0-6.93,0c-0.52-1.67-1.02-3.35-1.49-5.05c-0.47-1.69-0.97-3.38-1.49-5.05c-2.97,0-5.96,0-8.96,0c-3,0-5.99,0-8.96,0
			c-0.52,1.67-1.02,3.35-1.49,5.05c-0.47,1.7-0.97,3.38-1.49,5.05c-2.24,0-4.53,0-6.85,0C824.8,688.18,822.49,688.18,820.2,688.18z
			 M840.39,666.42c1.83,0,3.67,0,5.52,0c1.85,0,3.69,0,5.52,0c-0.89-3.08-1.8-6.18-2.74-9.31c-0.94-3.13-1.85-6.23-2.74-9.31
			c-0.89,3.08-1.81,6.18-2.78,9.31C842.2,660.24,841.27,663.34,840.39,666.42z"/>
		<path class="st1" d="M872.47,661.57c0-4.02,0.64-7.68,1.92-11c1.28-3.31,3.09-6.19,5.44-8.65c2.35-2.45,5.17-4.36,8.45-5.71
			c3.29-1.36,6.93-2.09,10.92-2.19c3.99-0.1,8.26,0.52,12.8,1.88c0,2.19,0,4.4,0,6.61c0,2.22,0,4.42,0,6.61
			c-3.08-1.46-6.13-2.3-9.16-2.5c-3.03-0.21-5.76,0.21-8.22,1.25c-2.45,1.04-4.41,2.7-5.87,4.97c-1.46,2.27-2.19,5.18-2.19,8.73
			c0,3.55,0.73,6.46,2.19,8.73c1.46,2.27,3.42,3.93,5.87,4.97c2.45,1.04,5.19,1.46,8.22,1.25c3.03-0.21,6.08-1.04,9.16-2.5
			c0,2.19,0,4.4,0,6.61c0,2.22,0,4.42,0,6.61c-4.54,1.36-8.8,1.98-12.8,1.88c-3.99-0.11-7.63-0.84-10.92-2.19
			c-3.29-1.36-6.1-3.26-8.45-5.71c-2.35-2.45-4.16-5.33-5.44-8.65C873.11,669.25,872.47,665.59,872.47,661.57z"/>
		<path class="st1" d="M916.77,661.57c0-4.02,0.64-7.68,1.92-11c1.28-3.31,3.09-6.19,5.44-8.65c2.35-2.45,5.17-4.36,8.45-5.71
			c3.29-1.36,6.93-2.09,10.92-2.19c3.99-0.1,8.26,0.52,12.8,1.88c0,2.19,0,4.4,0,6.61c0,2.22,0,4.42,0,6.61
			c-3.08-1.46-6.13-2.3-9.16-2.5c-3.03-0.21-5.76,0.21-8.22,1.25c-2.45,1.04-4.41,2.7-5.87,4.97c-1.46,2.27-2.19,5.18-2.19,8.73
			c0,3.55,0.73,6.46,2.19,8.73c1.46,2.27,3.42,3.93,5.87,4.97c2.45,1.04,5.19,1.46,8.22,1.25c3.03-0.21,6.08-1.04,9.16-2.5
			c0,2.19,0,4.4,0,6.61c0,2.22,0,4.42,0,6.61c-4.54,1.36-8.8,1.98-12.8,1.88c-3.99-0.11-7.63-0.84-10.92-2.19
			c-3.29-1.36-6.1-3.26-8.45-5.71c-2.35-2.45-4.16-5.33-5.44-8.65C917.41,669.25,916.77,665.59,916.77,661.57z"/>
		<path class="st1" d="M987.44,689.43c-3.81,0-7.33-0.69-10.56-2.07c-3.24-1.38-6.03-3.33-8.37-5.83c-2.35-2.5-4.17-5.46-5.48-8.88
			c-1.3-3.42-1.96-7.13-1.96-11.15c0-4.02,0.65-7.72,1.96-11.11c1.3-3.39,3.13-6.33,5.48-8.8c2.35-2.48,5.14-4.41,8.37-5.79
			c3.23-1.38,6.76-2.07,10.56-2.07s7.32,0.69,10.53,2.07c3.21,1.38,6,3.31,8.37,5.79c2.37,2.48,4.21,5.41,5.52,8.8
			c1.3,3.39,1.96,7.1,1.96,11.11c0,4.02-0.65,7.74-1.96,11.15c-1.3,3.42-3.14,6.38-5.52,8.88c-2.38,2.5-5.17,4.45-8.37,5.83
			C994.76,688.74,991.25,689.43,987.44,689.43z M987.44,676.75c2.56,0,4.75-0.64,6.57-1.92c1.83-1.28,3.25-3.06,4.26-5.36
			c1.02-2.29,1.53-4.96,1.53-7.98c0-3.03-0.51-5.66-1.53-7.9c-1.02-2.24-2.44-4-4.26-5.28c-1.83-1.28-4.02-1.92-6.57-1.92
			c-2.5,0-4.68,0.63-6.53,1.88c-1.85,1.25-3.29,3.01-4.3,5.28c-1.02,2.27-1.53,4.92-1.53,7.94c0,3.03,0.51,5.69,1.53,7.98
			c1.02,2.3,2.45,4.08,4.3,5.36C982.76,676.11,984.93,676.75,987.44,676.75z"/>
		<path class="st1" d="M1064.6,667.99c0,3.29-0.56,6.25-1.68,8.88c-1.12,2.64-2.69,4.89-4.7,6.77c-2.01,1.88-4.36,3.31-7.04,4.3
			c-2.69,0.99-5.6,1.49-8.73,1.49c-3.18,0-6.1-0.5-8.76-1.49c-2.66-0.99-4.97-2.41-6.93-4.27c-1.96-1.85-3.48-4.08-4.58-6.69
			c-1.09-2.61-1.64-5.56-1.64-8.84c0-5.48,0-11.01,0-16.59c0-5.58,0-11.11,0-16.59c2.29,0,4.59,0,6.89,0c2.29,0,4.56,0,6.81,0
			c0,5.37,0,10.77,0,16.2c0,5.43,0,10.83,0,16.2c0,2.82,0.78,5.09,2.35,6.81c1.56,1.72,3.57,2.58,6.03,2.58
			c2.45,0,4.45-0.86,5.99-2.58c1.54-1.72,2.31-3.99,2.31-6.81c0-5.37,0-10.77,0-16.2c0-5.43,0-10.83,0-16.2c2.29,0,4.59,0,6.89,0
			c2.29,0,4.56,0,6.81,0c0,5.43,0,10.93,0,16.51C1064.6,657.06,1064.6,662.56,1064.6,667.99z"/>
		<path class="st1" d="M1073.99,688.18c0-8.76,0-17.63,0-26.61c0-8.97,0-17.84,0-26.61c2.29,0,4.6,0,6.93,0c2.32,0,4.6,0,6.85,0
			c2.76,4.96,5.57,9.97,8.41,15.03c2.84,5.06,5.65,10.07,8.41,15.03c0-4.96,0-9.96,0-15.03c0-5.06,0-10.07,0-15.03
			c2.24,0,4.49,0,6.73,0s4.49,0,6.73,0c0,8.76,0,17.63,0,26.61c0,8.97,0,17.84,0,26.61c-2.24,0-4.53,0-6.85,0c-2.32,0-4.63,0-6.93,0
			c-2.77-4.96-5.57-9.96-8.41-15.03c-2.84-5.06-5.65-10.07-8.41-15.03c0,4.96,0,9.97,0,15.03s0,10.07,0,15.03c-2.24,0-4.49,0-6.73,0
			C1078.48,688.18,1076.23,688.18,1073.99,688.18z"/>
		<path class="st1" d="M1137.54,688.18c0-6.73,0-13.53,0-20.39c0-6.86,0-13.66,0-20.39c-1.98,0-3.99,0-6.03,0c-2.04,0-4.04,0-6.03,0
			c0-2.04,0-4.11,0-6.22c0-2.11,0-4.19,0-6.22c6.21,0,12.5,0,18.86,0s12.65,0,18.86,0c0,2.03,0,4.11,0,6.22c0,2.11,0,4.19,0,6.22
			c-1.93,0-3.91,0-5.95,0c-2.04,0-4.04,0-6.03,0c0,6.73,0,13.53,0,20.39c0,6.86,0,13.66,0,20.39c-2.24,0-4.51,0-6.81,0
			S1139.83,688.18,1137.54,688.18z"/>
		<path class="st1" d="M1171.03,688.18c0-8.76,0-17.63,0-26.61c0-8.97,0-17.84,0-26.61c2.29,0,4.59,0,6.89,0c2.29,0,4.56,0,6.81,0
			c0,8.76,0,17.63,0,26.61c0,8.97,0,17.84,0,26.61c-2.24,0-4.51,0-6.81,0C1175.62,688.18,1173.33,688.18,1171.03,688.18z"/>
		<path class="st1" d="M1195.29,688.18c0-8.76,0-17.63,0-26.61c0-8.97,0-17.84,0-26.61c2.29,0,4.6,0,6.93,0c2.32,0,4.6,0,6.85,0
			c2.76,4.96,5.57,9.97,8.41,15.03c2.84,5.06,5.65,10.07,8.41,15.03c0-4.96,0-9.96,0-15.03c0-5.06,0-10.07,0-15.03
			c2.24,0,4.49,0,6.73,0s4.49,0,6.73,0c0,8.76,0,17.63,0,26.61c0,8.97,0,17.84,0,26.61c-2.24,0-4.53,0-6.85,0c-2.32,0-4.63,0-6.93,0
			c-2.77-4.96-5.57-9.96-8.41-15.03c-2.84-5.06-5.65-10.07-8.41-15.03c0,4.96,0,9.97,0,15.03s0,10.07,0,15.03c-2.24,0-4.49,0-6.73,0
			C1199.78,688.18,1197.53,688.18,1195.29,688.18z"/>
		<path class="st1" d="M1292.49,685.36c-5.43,2.19-10.47,3.46-15.14,3.8c-4.67,0.34-8.88-0.11-12.64-1.33
			c-3.76-1.22-6.97-3.09-9.63-5.59c-2.66-2.5-4.7-5.48-6.1-8.92c-1.41-3.44-2.11-7.2-2.11-11.27c0-4.02,0.65-7.73,1.96-11.15
			c1.3-3.42,3.22-6.38,5.75-8.88c2.53-2.5,5.6-4.46,9.2-5.87c3.6-1.41,7.7-2.1,12.29-2.07c4.59,0.03,9.63,0.87,15.1,2.54
			c0,2.19,0,4.4,0,6.61c0,2.22,0,4.42,0,6.61c-4.33-1.72-8.33-2.71-12.01-2.97c-3.68-0.26-6.89,0.13-9.63,1.17
			c-2.74,1.04-4.88,2.7-6.42,4.97c-1.54,2.27-2.31,5.1-2.31,8.49c0,2.97,0.56,5.61,1.68,7.9c1.12,2.3,2.7,4.1,4.73,5.4
			c2.03,1.3,4.36,1.96,6.96,1.96c0.89,0,1.77-0.04,2.66-0.12c0.89-0.08,1.75-0.22,2.58-0.43c0-1.36,0-2.74,0-4.15
			c0-1.41,0-2.79,0-4.15c-1.46,0-2.92,0-4.38,0c-1.46,0-2.92,0-4.38,0c0-1.93,0-3.87,0-5.83c0-1.96,0-3.9,0-5.83
			c3.6,0,7.24,0,10.92,0c3.68,0,7.32,0,10.92,0c0,4.8,0,9.65,0,14.56S1292.49,680.56,1292.49,685.36z"/>
	</g>
</g>
<g>
	<rect x="-237.04" y="915.35" width="935.76" height="540.12"/>
</g>
<g>
	<g>
		<g>
			<g>
				<path class="st0" d="M72.9,1175.03c36.1,0,70.87,0,106.47,0c-9.8,26.93-19.46,53.49-29.46,80.99
					C124.14,1228.92,98.9,1202.37,72.9,1175.03z"/>
			</g>
		</g>
		<g>
			<path class="st2" d="M186.67,1091.8c24.64,0.83,48.99,1.65,74.68,2.51c-25.32,24.07-49.64,47.18-74.68,70.97
				C186.67,1140.41,186.67,1116.44,186.67,1091.8z"/>
		</g>
		<g>
			<g>
				<path class="st2" d="M180.61,1096.33c0,24.99,0,48.78,0,72.95c-22.86,0-45.56,0-69.12,0
					C134.56,1144.93,157.22,1121.02,180.61,1096.33z"/>
			</g>
		</g>
		<g>
			<g>
				<path class="st2" d="M180.37,1300.45c-11.49-6.19-22.66-12.2-34.18-18.41c11.25-30.61,22.38-60.88,33.51-91.16
					c0.22,0.03,0.45,0.06,0.67,0.1C180.37,1227.23,180.37,1263.48,180.37,1300.45z"/>
			</g>
		</g>
		<g>
			<g>
				<path class="st2" d="M63.24,1117.49c0,5.72,0,10.39,0,15.41c-5.34,0-10.47,0-16.84,0C52.34,1127.46,57.45,1122.79,63.24,1117.49
					z"/>
			</g>
		</g>
		<g>
			<g>
				<polygon class="st2" points="232.94,1127.57 258.76,1103.92 275.62,1104.7 				"/>
			</g>
		</g>
		<g>
			<polygon class="st2" points="69.11,1113.92 85.52,1113.92 119.61,1152.52 101.94,1170.19 69.11,1170.19 			"/>
		</g>
	</g>
	<g>
		<path class="st0" d="M291.91,1172.66c0-6.72,0-13.52,0-20.4s0-13.68,0-20.4c4.04,0,8.12,0,12.24,0c4.12,0,8.2,0,12.24,0
			c0,1.52,0,3.08,0,4.68s0,3.16,0,4.68c-2.32,0-4.65,0-6.99,0c-2.34,0-4.67,0-6.99,0c0,1,0,1.99,0,2.97c0,0.98,0,1.97,0,2.97
			c2.12,0,4.26,0,6.42,0c2.16,0,4.28,0,6.36,0c0,1.48,0,2.98,0,4.5c0,1.52,0,3.04,0,4.56c-2.08,0-4.2,0-6.36,0c-2.16,0-4.3,0-6.42,0
			c0,1.16,0,2.34,0,3.54s0,2.38,0,3.54c2.32,0,4.65,0,6.99,0c2.34,0,4.67,0,6.99,0c0,1.52,0,3.08,0,4.68c0,1.6,0,3.16,0,4.68
			c-4.04,0-8.12,0-12.24,0C300.03,1172.66,295.95,1172.66,291.91,1172.66z"/>
		<path class="st2" d="M323.59,1172.66c0-6.72,0-13.52,0-20.4s0-13.68,0-20.4c1.76,0,3.52,0,5.28,0c1.76,0,3.5,0,5.22,0
			c0,5.16,0,10.37,0,15.63c0,5.26,0,10.47,0,15.63c2.12,0,4.26,0,6.42,0c2.16,0,4.28,0,6.36,0c0,1.56,0,3.15,0,4.77s0,3.21,0,4.77
			c-3.84,0-7.72,0-11.64,0C331.31,1172.66,327.44,1172.66,323.59,1172.66z"/>
		<path class="st2" d="M352.57,1172.66c0-6.72,0-13.52,0-20.4s0-13.68,0-20.4c1.76,0,3.52,0,5.28,0c1.76,0,3.5,0,5.22,0
			c0,5.16,0,10.37,0,15.63c0,5.26,0,10.47,0,15.63c2.12,0,4.26,0,6.42,0c2.16,0,4.28,0,6.36,0c0,1.56,0,3.15,0,4.77s0,3.21,0,4.77
			c-3.84,0-7.72,0-11.64,0C360.29,1172.66,356.41,1172.66,352.57,1172.66z"/>
		<path class="st2" d="M377.65,1172.66c2.08-6.72,4.17-13.52,6.27-20.4s4.19-13.68,6.27-20.4c2.36,0,4.75,0,7.17,0
			c2.42,0,4.81,0,7.17,0c2.08,6.72,4.17,13.52,6.27,20.4s4.19,13.68,6.27,20.4c-1.72,0-3.47,0-5.25,0c-1.78,0-3.55,0-5.31,0
			c-0.4-1.28-0.78-2.57-1.14-3.87c-0.36-1.3-0.74-2.59-1.14-3.87c-2.28,0-4.57,0-6.87,0c-2.3,0-4.59,0-6.87,0
			c-0.4,1.28-0.78,2.57-1.14,3.87c-0.36,1.3-0.74,2.59-1.14,3.87c-1.72,0-3.47,0-5.25,0
			C381.18,1172.66,379.41,1172.66,377.65,1172.66z M393.13,1155.98c1.4,0,2.81,0,4.23,0c1.42,0,2.83,0,4.23,0
			c-0.68-2.36-1.38-4.74-2.1-7.14c-0.72-2.4-1.42-4.78-2.1-7.14c-0.68,2.36-1.39,4.74-2.13,7.14
			C394.52,1151.24,393.81,1153.63,393.13,1155.98z"/>
		<path class="st2" d="M420.97,1172.66c0-6.72,0-13.52,0-20.4s0-13.68,0-20.4c2.4,0,4.81,0,7.23,0c2.42,0,4.83,0,7.23,0
			c3.04,0,5.7,0.57,7.98,1.71c2.28,1.14,4.05,2.74,5.31,4.8c1.26,2.06,1.89,4.47,1.89,7.23c0,2.36-0.48,4.46-1.44,6.3
			s-2.26,3.34-3.9,4.5c1.6,2.68,3.21,5.39,4.83,8.13c1.62,2.74,3.23,5.45,4.83,8.13c-1.96,0-3.92,0-5.88,0c-1.96,0-3.92,0-5.88,0
			c-1.24-2.24-2.49-4.52-3.75-6.84c-1.26-2.32-2.53-4.6-3.81-6.84c-0.68,0-1.37,0-2.07,0c-0.7,0-1.39,0-2.07,0c0,2.24,0,4.52,0,6.84
			c0,2.32,0,4.6,0,6.84c-1.72,0-3.46,0-5.22,0C424.49,1172.66,422.73,1172.66,420.97,1172.66z M435.43,1141.35
			c-0.64,0-1.29,0-1.95,0c-0.66,0-1.33,0-2.01,0c0,1.48,0,2.96,0,4.44c0,1.48,0,2.96,0,4.44c0.76,0,1.52,0,2.28,0
			c0.76,0,1.52,0,2.28,0c1.2,0,2.18-0.43,2.94-1.29c0.76-0.86,1.14-1.91,1.14-3.15c0-1.28-0.41-2.34-1.23-3.18
			C438.06,1141.77,436.91,1141.35,435.43,1141.35z"/>
		<path class="st2" d="M454.63,1172.66c2.08-6.72,4.17-13.52,6.27-20.4s4.19-13.68,6.27-20.4c2.36,0,4.75,0,7.17,0
			c2.42,0,4.81,0,7.17,0c2.08,6.72,4.17,13.52,6.27,20.4s4.19,13.68,6.27,20.4c-1.72,0-3.47,0-5.25,0c-1.78,0-3.55,0-5.31,0
			c-0.4-1.28-0.78-2.57-1.14-3.87c-0.36-1.3-0.74-2.59-1.14-3.87c-2.28,0-4.57,0-6.87,0c-2.3,0-4.59,0-6.87,0
			c-0.4,1.28-0.78,2.57-1.14,3.87c-0.36,1.3-0.74,2.59-1.14,3.87c-1.72,0-3.47,0-5.25,0
			C458.16,1172.66,456.39,1172.66,454.63,1172.66z M470.11,1155.98c1.4,0,2.81,0,4.23,0c1.42,0,2.83,0,4.23,0
			c-0.68-2.36-1.38-4.74-2.1-7.14c-0.72-2.4-1.42-4.78-2.1-7.14c-0.68,2.36-1.39,4.74-2.13,7.14
			C471.5,1151.24,470.79,1153.63,470.11,1155.98z"/>
		<path class="st2" d="M288.01,1244.66c2.08-6.72,4.17-13.52,6.27-20.4s4.19-13.68,6.27-20.4c2.36,0,4.75,0,7.17,0
			c2.42,0,4.81,0,7.17,0c2.08,6.72,4.17,13.52,6.27,20.4s4.19,13.68,6.27,20.4c-1.72,0-3.47,0-5.25,0c-1.78,0-3.55,0-5.31,0
			c-0.4-1.28-0.78-2.57-1.14-3.87c-0.36-1.3-0.74-2.59-1.14-3.87c-2.28,0-4.57,0-6.87,0c-2.3,0-4.59,0-6.87,0
			c-0.4,1.28-0.78,2.57-1.14,3.87c-0.36,1.3-0.74,2.59-1.14,3.87c-1.72,0-3.47,0-5.25,0
			C291.54,1244.66,289.77,1244.66,288.01,1244.66z M303.49,1227.98c1.4,0,2.81,0,4.23,0c1.42,0,2.83,0,4.23,0
			c-0.68-2.36-1.38-4.74-2.1-7.14c-0.72-2.4-1.42-4.78-2.1-7.14c-0.68,2.36-1.39,4.74-2.13,7.14
			C304.88,1223.24,304.17,1225.63,303.49,1227.98z"/>
		<path class="st2" d="M328.1,1224.27c0-3.08,0.49-5.89,1.47-8.43c0.98-2.54,2.37-4.75,4.17-6.63c1.8-1.88,3.96-3.34,6.48-4.38
			c2.52-1.04,5.31-1.6,8.37-1.68s6.33,0.4,9.81,1.44c0,1.68,0,3.37,0,5.07c0,1.7,0,3.39,0,5.07c-2.36-1.12-4.7-1.76-7.02-1.92
			c-2.32-0.16-4.42,0.16-6.3,0.96c-1.88,0.8-3.38,2.07-4.5,3.81c-1.12,1.74-1.68,3.97-1.68,6.69c0,2.72,0.56,4.95,1.68,6.69
			c1.12,1.74,2.62,3.01,4.5,3.81c1.88,0.8,3.98,1.12,6.3,0.96c2.32-0.16,4.66-0.8,7.02-1.92c0,1.68,0,3.37,0,5.07s0,3.39,0,5.07
			c-3.48,1.04-6.75,1.52-9.81,1.44c-3.06-0.08-5.85-0.64-8.37-1.68c-2.52-1.04-4.68-2.5-6.48-4.38c-1.8-1.88-3.19-4.09-4.17-6.63
			C328.58,1230.15,328.1,1227.35,328.1,1224.27z"/>
		<path class="st2" d="M362.06,1224.27c0-3.08,0.49-5.89,1.47-8.43c0.98-2.54,2.37-4.75,4.17-6.63c1.8-1.88,3.96-3.34,6.48-4.38
			c2.52-1.04,5.31-1.6,8.37-1.68s6.33,0.4,9.81,1.44c0,1.68,0,3.37,0,5.07c0,1.7,0,3.39,0,5.07c-2.36-1.12-4.7-1.76-7.02-1.92
			c-2.32-0.16-4.42,0.16-6.3,0.96c-1.88,0.8-3.38,2.07-4.5,3.81c-1.12,1.74-1.68,3.97-1.68,6.69c0,2.72,0.56,4.95,1.68,6.69
			c1.12,1.74,2.62,3.01,4.5,3.81c1.88,0.8,3.98,1.12,6.3,0.96c2.32-0.16,4.66-0.8,7.02-1.92c0,1.68,0,3.37,0,5.07s0,3.39,0,5.07
			c-3.48,1.04-6.75,1.52-9.81,1.44c-3.06-0.08-5.85-0.64-8.37-1.68c-2.52-1.04-4.68-2.5-6.48-4.38c-1.8-1.88-3.19-4.09-4.17-6.63
			C362.55,1230.15,362.06,1227.35,362.06,1224.27z"/>
		<path class="st2" d="M416.24,1245.63c-2.92,0-5.62-0.53-8.1-1.59c-2.48-1.06-4.62-2.55-6.42-4.47c-1.8-1.92-3.2-4.19-4.2-6.81
			c-1-2.62-1.5-5.47-1.5-8.55s0.5-5.92,1.5-8.52c1-2.6,2.4-4.85,4.2-6.75c1.8-1.9,3.94-3.38,6.42-4.44c2.48-1.06,5.18-1.59,8.1-1.59
			c2.92,0,5.61,0.53,8.07,1.59c2.46,1.06,4.6,2.54,6.42,4.44c1.82,1.9,3.23,4.15,4.23,6.75c1,2.6,1.5,5.44,1.5,8.52
			s-0.5,5.93-1.5,8.55c-1,2.62-2.41,4.89-4.23,6.81c-1.82,1.92-3.96,3.41-6.42,4.47C421.85,1245.09,419.16,1245.63,416.24,1245.63z
			 M416.24,1235.9c1.96,0,3.64-0.49,5.04-1.47c1.4-0.98,2.49-2.35,3.27-4.11c0.78-1.76,1.17-3.8,1.17-6.12s-0.39-4.34-1.17-6.06
			c-0.78-1.72-1.87-3.07-3.27-4.05c-1.4-0.98-3.08-1.47-5.04-1.47c-1.92,0-3.59,0.48-5.01,1.44c-1.42,0.96-2.52,2.31-3.3,4.05
			c-0.78,1.74-1.17,3.77-1.17,6.09s0.39,4.36,1.17,6.12c0.78,1.76,1.88,3.13,3.3,4.11C412.65,1235.42,414.32,1235.9,416.24,1235.9z"
			/>
		<path class="st2" d="M475.4,1229.18c0,2.52-0.43,4.79-1.29,6.81c-0.86,2.02-2.06,3.75-3.6,5.19c-1.54,1.44-3.34,2.54-5.4,3.3
			c-2.06,0.76-4.29,1.14-6.69,1.14c-2.44,0-4.68-0.38-6.72-1.14s-3.81-1.85-5.31-3.27s-2.67-3.13-3.51-5.13
			c-0.84-2-1.26-4.26-1.26-6.78c0-4.2,0-8.44,0-12.72c0-4.28,0-8.52,0-12.72c1.76,0,3.52,0,5.28,0c1.76,0,3.5,0,5.22,0
			c0,4.12,0,8.26,0,12.42s0,8.3,0,12.42c0,2.16,0.6,3.9,1.8,5.22c1.2,1.32,2.74,1.98,4.62,1.98c1.88,0,3.41-0.66,4.59-1.98
			c1.18-1.32,1.77-3.06,1.77-5.22c0-4.12,0-8.26,0-12.42s0-8.3,0-12.42c1.76,0,3.52,0,5.28,0c1.76,0,3.5,0,5.22,0
			c0,4.16,0,8.38,0,12.66S475.4,1225.03,475.4,1229.18z"/>
		<path class="st2" d="M482.6,1244.66c0-6.72,0-13.52,0-20.4s0-13.68,0-20.4c1.76,0,3.53,0,5.31,0c1.78,0,3.53,0,5.25,0
			c2.12,3.8,4.27,7.64,6.45,11.52c2.18,3.88,4.33,7.72,6.45,11.52c0-3.8,0-7.64,0-11.52c0-3.88,0-7.72,0-11.52c1.72,0,3.44,0,5.16,0
			c1.72,0,3.44,0,5.16,0c0,6.72,0,13.52,0,20.4s0,13.68,0,20.4c-1.72,0-3.47,0-5.25,0c-1.78,0-3.55,0-5.31,0
			c-2.12-3.8-4.27-7.64-6.45-11.52c-2.18-3.88-4.33-7.72-6.45-11.52c0,3.8,0,7.64,0,11.52c0,3.88,0,7.72,0,11.52
			c-1.72,0-3.44,0-5.16,0C486.04,1244.66,484.31,1244.66,482.6,1244.66z"/>
		<path class="st2" d="M531.31,1244.66c0-5.16,0-10.37,0-15.63s0-10.47,0-15.63c-1.52,0-3.06,0-4.62,0s-3.1,0-4.62,0
			c0-1.56,0-3.15,0-4.77c0-1.62,0-3.21,0-4.77c4.76,0,9.58,0,14.46,0c4.88,0,9.7,0,14.46,0c0,1.56,0,3.15,0,4.77
			c0,1.62,0,3.21,0,4.77c-1.48,0-3,0-4.56,0s-3.1,0-4.62,0c0,5.16,0,10.37,0,15.63s0,10.47,0,15.63c-1.72,0-3.46,0-5.22,0
			C534.83,1244.66,533.07,1244.66,531.31,1244.66z"/>
		<path class="st2" d="M556.99,1244.66c0-6.72,0-13.52,0-20.4s0-13.68,0-20.4c1.76,0,3.52,0,5.28,0c1.76,0,3.5,0,5.22,0
			c0,6.72,0,13.52,0,20.4s0,13.68,0,20.4c-1.72,0-3.46,0-5.22,0C560.51,1244.66,558.75,1244.66,556.99,1244.66z"/>
		<path class="st2" d="M575.59,1244.66c0-6.72,0-13.52,0-20.4s0-13.68,0-20.4c1.76,0,3.53,0,5.31,0c1.78,0,3.53,0,5.25,0
			c2.12,3.8,4.27,7.64,6.45,11.52c2.18,3.88,4.33,7.72,6.45,11.52c0-3.8,0-7.64,0-11.52c0-3.88,0-7.72,0-11.52c1.72,0,3.44,0,5.16,0
			c1.72,0,3.44,0,5.16,0c0,6.72,0,13.52,0,20.4s0,13.68,0,20.4c-1.72,0-3.47,0-5.25,0c-1.78,0-3.55,0-5.31,0
			c-2.12-3.8-4.27-7.64-6.45-11.52c-2.18-3.88-4.33-7.72-6.45-11.52c0,3.8,0,7.64,0,11.52c0,3.88,0,7.72,0,11.52
			c-1.72,0-3.44,0-5.16,0C579.03,1244.66,577.31,1244.66,575.59,1244.66z"/>
		<path class="st2" d="M650.11,1242.5c-4.16,1.68-8.03,2.65-11.61,2.91c-3.58,0.26-6.81-0.08-9.69-1.02s-5.34-2.37-7.38-4.29
			s-3.6-4.2-4.68-6.84s-1.62-5.52-1.62-8.64c0-3.08,0.5-5.93,1.5-8.55c1-2.62,2.47-4.89,4.41-6.81c1.94-1.92,4.29-3.42,7.05-4.5
			c2.76-1.08,5.9-1.61,9.42-1.59c3.52,0.02,7.38,0.67,11.58,1.95c0,1.68,0,3.37,0,5.07s0,3.39,0,5.07
			c-3.32-1.32-6.39-2.08-9.21-2.28c-2.82-0.2-5.28,0.1-7.38,0.9c-2.1,0.8-3.74,2.07-4.92,3.81c-1.18,1.74-1.77,3.91-1.77,6.51
			c0,2.28,0.43,4.3,1.29,6.06c0.86,1.76,2.07,3.14,3.63,4.14c1.56,1,3.34,1.5,5.34,1.5c0.68,0,1.36-0.03,2.04-0.09
			c0.68-0.06,1.34-0.17,1.98-0.33c0-1.04,0-2.1,0-3.18s0-2.14,0-3.18c-1.12,0-2.24,0-3.36,0c-1.12,0-2.24,0-3.36,0
			c0-1.48,0-2.97,0-4.47s0-2.99,0-4.47c2.76,0,5.55,0,8.37,0c2.82,0,5.61,0,8.37,0c0,3.68,0,7.4,0,11.16
			C650.11,1235.11,650.11,1238.82,650.11,1242.5z"/>
	</g>
</g>
</svg>
